<?xml version="1.0" encoding="UTF-8" standalone="no"?>
<svg
   xmlns:dc="http://purl.org/dc/elements/1.1/"
   xmlns:cc="http://creativecommons.org/ns#"
   xmlns:rdf="http://www.w3.org/1999/02/22-rdf-syntax-ns#"
   xmlns:svg="http://www.w3.org/2000/svg"
   xmlns="http://www.w3.org/2000/svg"
   width="53.445835mm"
   height="53.445835mm"
   viewBox="0 0 53.445835 53.445835"
   version="1.1"
   id="svg8">
  <defs
     id="defs2" />
  <metadata
     id="metadata5">
    <rdf:RDF>
      <cc:Work
         rdf:about="">
        <dc:format>image/svg+xml</dc:format>
        <dc:type
           rdf:resource="http://purl.org/dc/dcmitype/StillImage" />
        <dc:title></dc:title>
      </cc:Work>
    </rdf:RDF>
  </metadata>
  <g
     id="layer1"
     transform="translate(-45.848515,-91.116368)">
    <rect
       style="fill:#ffffff;fill-opacity:1;stroke:#000000;stroke-width:2.54503989;stroke-miterlimit:4;stroke-dasharray:none;stroke-opacity:1"
       id="rect815"
       width="50.900795"
       height="50.900795"
       x="47.121037"
       y="92.388893" />
    <g
       aria-label="PERF PERF PERF"
       style="font-style:normal;font-weight:normal;font-size:10.58333302px;line-height:1.25;font-family:sans-serif;letter-spacing:0px;word-spacing:0px;fill:#000000;fill-opacity:1;stroke:none;stroke-width:0.26458332"
       id="text819">
      <path
         d="m 61.316555,100.90596 q 0.98425,0 1.703916,0.32808 0.73025,0.32809 1.121834,0.93134 0.391583,0.60325 0.391583,1.42875 0,0.81491 -0.391583,1.42875 -0.391584,0.60325 -1.121834,0.93133 -0.719666,0.3175 -1.703916,0.3175 h -1.49225 v 2.04258 h -1.7145 v -7.40833 z m -0.09525,3.96875 q 0.772583,0 1.17475,-0.32808 0.402166,-0.33867 0.402166,-0.9525 0,-0.62442 -0.402166,-0.9525 -0.402167,-0.33867 -1.17475,-0.33867 h -1.397 v 2.57175 z"
         style="font-style:normal;font-variant:normal;font-weight:bold;font-stretch:normal;line-height:1;font-family:Montserrat;-inkscape-font-specification:'Montserrat Bold';letter-spacing:0.26458332px;fill:#000000;fill-opacity:1;stroke-width:0.26458332"
         id="path842" />
      <path
         d="m 71.758666,106.93846 v 1.37583 H 66.0225 v -7.40833 h 5.598583 v 1.37583 h -3.894667 v 1.60867 H 71.166 v 1.3335 h -3.439584 v 1.7145 z"
         style="font-style:normal;font-variant:normal;font-weight:bold;font-stretch:normal;line-height:1;font-family:Montserrat;-inkscape-font-specification:'Montserrat Bold';letter-spacing:0.26458332px;fill:#000000;fill-opacity:1;stroke-width:0.26458332"
         id="path844" />
      <path
         d="m 78.117927,108.31429 -1.42875,-2.06375 h -0.08467 -1.49225 v 2.06375 h -1.7145 v -7.40833 h 3.20675 q 0.98425,0 1.703917,0.32808 0.73025,0.32809 1.121833,0.93134 0.391583,0.60325 0.391583,1.42875 0,0.8255 -0.402166,1.42875 -0.391584,0.59266 -1.121834,0.91016 l 1.661583,2.38125 z m -0.03175,-4.72016 q 0,-0.62442 -0.402167,-0.9525 -0.402167,-0.33867 -1.17475,-0.33867 h -1.397 v 2.58233 h 1.397 q 0.772583,0 1.17475,-0.33866 0.402167,-0.33867 0.402167,-0.9525 z"
         style="font-style:normal;font-variant:normal;font-weight:bold;font-stretch:normal;line-height:1;font-family:Montserrat;-inkscape-font-specification:'Montserrat Bold';letter-spacing:0.26458332px;fill:#000000;fill-opacity:1;stroke-width:0.26458332"
         id="path846" />
      <path
         d="m 83.148979,102.28179 v 1.95792 h 3.429 v 1.37583 h -3.429 v 2.69875 h -1.7145 v -7.40833 h 5.598584 v 1.37583 z"
         style="font-style:normal;font-variant:normal;font-weight:bold;font-stretch:normal;line-height:1;font-family:Montserrat;-inkscape-font-specification:'Montserrat Bold';letter-spacing:0.26458332px;fill:#000000;fill-opacity:1;stroke-width:0.26458332"
         id="path848" />
      <path
         d="m 61.316555,114.13513 q 0.98425,0 1.703916,0.32808 0.73025,0.32808 1.121834,0.93133 0.391583,0.60325 0.391583,1.42875 0,0.81492 -0.391583,1.42875 -0.391584,0.60325 -1.121834,0.93134 -0.719666,0.3175 -1.703916,0.3175 h -1.49225 v 2.04258 h -1.7145 v -7.40833 z m -0.09525,3.96875 q 0.772583,0 1.17475,-0.32809 0.402166,-0.33866 0.402166,-0.9525 0,-0.62441 -0.402166,-0.9525 -0.402167,-0.33866 -1.17475,-0.33866 h -1.397 v 2.57175 z"
         style="font-style:normal;font-variant:normal;font-weight:bold;font-stretch:normal;line-height:1;font-family:Montserrat;-inkscape-font-specification:'Montserrat Bold';letter-spacing:0.26458332px;fill:#000000;fill-opacity:1;stroke-width:0.26458332"
         id="path850" />
      <path
         d="m 71.758666,120.16763 v 1.37583 H 66.0225 v -7.40833 h 5.598583 v 1.37583 h -3.894667 v 1.60867 H 71.166 v 1.3335 h -3.439584 v 1.7145 z"
         style="font-style:normal;font-variant:normal;font-weight:bold;font-stretch:normal;line-height:1;font-family:Montserrat;-inkscape-font-specification:'Montserrat Bold';letter-spacing:0.26458332px;fill:#000000;fill-opacity:1;stroke-width:0.26458332"
         id="path852" />
      <path
         d="m 78.117927,121.54346 -1.42875,-2.06375 h -0.08467 -1.49225 v 2.06375 h -1.7145 v -7.40833 h 3.20675 q 0.98425,0 1.703917,0.32808 0.73025,0.32808 1.121833,0.93133 0.391583,0.60325 0.391583,1.42875 0,0.8255 -0.402166,1.42875 -0.391584,0.59267 -1.121834,0.91017 l 1.661583,2.38125 z m -0.03175,-4.72017 q 0,-0.62441 -0.402167,-0.9525 -0.402167,-0.33866 -1.17475,-0.33866 h -1.397 v 2.58233 h 1.397 q 0.772583,0 1.17475,-0.33867 0.402167,-0.33866 0.402167,-0.9525 z"
         style="font-style:normal;font-variant:normal;font-weight:bold;font-stretch:normal;line-height:1;font-family:Montserrat;-inkscape-font-specification:'Montserrat Bold';letter-spacing:0.26458332px;fill:#000000;fill-opacity:1;stroke-width:0.26458332"
         id="path854" />
      <path
         d="m 83.148979,115.51096 v 1.95792 h 3.429 v 1.37583 h -3.429 v 2.69875 h -1.7145 v -7.40833 h 5.598584 v 1.37583 z"
         style="font-style:normal;font-variant:normal;font-weight:bold;font-stretch:normal;line-height:1;font-family:Montserrat;-inkscape-font-specification:'Montserrat Bold';letter-spacing:0.26458332px;fill:#000000;fill-opacity:1;stroke-width:0.26458332"
         id="path856" />
      <path
         d="m 61.316555,127.36429 q 0.98425,0 1.703916,0.32809 0.73025,0.32808 1.121834,0.93133 0.391583,0.60325 0.391583,1.42875 0,0.81492 -0.391583,1.42875 -0.391584,0.60325 -1.121834,0.93133 -0.719666,0.3175 -1.703916,0.3175 h -1.49225 v 2.04259 h -1.7145 v -7.40834 z m -0.09525,3.96875 q 0.772583,0 1.17475,-0.32808 0.402166,-0.33867 0.402166,-0.9525 0,-0.62442 -0.402166,-0.9525 -0.402167,-0.33867 -1.17475,-0.33867 h -1.397 v 2.57175 z"
         style="font-style:normal;font-variant:normal;font-weight:bold;font-stretch:normal;line-height:1;font-family:Montserrat;-inkscape-font-specification:'Montserrat Bold';letter-spacing:0.26458332px;fill:#000000;fill-opacity:1;stroke-width:0.26458332"
         id="path858" />
      <path
         d="m 71.758666,133.39679 v 1.37584 H 66.0225 v -7.40834 h 5.598583 v 1.37584 h -3.894667 v 1.60866 H 71.166 v 1.3335 h -3.439584 v 1.7145 z"
         style="font-style:normal;font-variant:normal;font-weight:bold;font-stretch:normal;line-height:1;font-family:Montserrat;-inkscape-font-specification:'Montserrat Bold';letter-spacing:0.26458332px;fill:#000000;fill-opacity:1;stroke-width:0.26458332"
         id="path860" />
      <path
         d="m 78.117927,134.77263 -1.42875,-2.06375 h -0.08467 -1.49225 v 2.06375 h -1.7145 v -7.40834 h 3.20675 q 0.98425,0 1.703917,0.32809 0.73025,0.32808 1.121833,0.93133 0.391583,0.60325 0.391583,1.42875 0,0.8255 -0.402166,1.42875 -0.391584,0.59267 -1.121834,0.91017 l 1.661583,2.38125 z m -0.03175,-4.72017 q 0,-0.62442 -0.402167,-0.9525 -0.402167,-0.33867 -1.17475,-0.33867 h -1.397 v 2.58234 h 1.397 q 0.772583,0 1.17475,-0.33867 0.402167,-0.33867 0.402167,-0.9525 z"
         style="font-style:normal;font-variant:normal;font-weight:bold;font-stretch:normal;line-height:1;font-family:Montserrat;-inkscape-font-specification:'Montserrat Bold';letter-spacing:0.26458332px;fill:#000000;fill-opacity:1;stroke-width:0.26458332"
         id="path862" />
      <path
         d="m 83.148979,128.74013 v 1.95791 h 3.429 v 1.37584 h -3.429 v 2.69875 h -1.7145 v -7.40834 h 5.598584 v 1.37584 z"
         style="font-style:normal;font-variant:normal;font-weight:bold;font-stretch:normal;line-height:1;font-family:Montserrat;-inkscape-font-specification:'Montserrat Bold';letter-spacing:0.26458332px;fill:#000000;fill-opacity:1;stroke-width:0.26458332"
         id="path864" />
    </g>
  </g>
</svg>
